<mxfile host="app.diagrams.net" modified="2024-02-19T10:09:23.994Z" agent="Mozilla/5.0 (Windows NT 10.0; Win64; x64) AppleWebKit/537.36 (KHTML, like Gecko) Chrome/121.0.0.0 Safari/537.36 Edg/121.0.0.0" version="23.1.5" etag="MNaFb9iPSs0iOJsEDmJx" type="github">
  <diagram name="Page-1" id="wrFLak51pPi2Nv47Hu7k">
    <mxGraphModel>
      <root>
        <mxCell id="0" />
        <mxCell id="1" parent="0" />
      </root>
    </mxGraphModel>
  </diagram>
</mxfile>
